<svg xmlns="http://www.w3.org/2000/svg" xmlns:xlink="http://www.w3.org/1999/xlink" width="600" zoomAndPan="magnify" viewBox="0 0 450 187.499995" height="250" preserveAspectRatio="xMidYMid meet" version="1.0"><defs><g/><clipPath id="5faf0a02cc"><path d="M 18 90 L 89 90 L 89 145 L 18 145 Z M 18 90 " clip-rule="nonzero"/></clipPath><clipPath id="146ca13dc1"><path d="M 15.902344 31.109375 L 131.578125 61.804688 L 106.257812 157.238281 L -9.421875 126.546875 Z M 15.902344 31.109375 " clip-rule="nonzero"/></clipPath><clipPath id="4d37a6185e"><path d="M 15.902344 31.109375 L 131.578125 61.804688 L 106.257812 157.238281 L -9.421875 126.546875 Z M 15.902344 31.109375 " clip-rule="nonzero"/></clipPath><clipPath id="8283e36d5b"><path d="M 15.902344 31.109375 L 131.578125 61.804688 L 106.257812 157.238281 L -9.421875 126.546875 Z M 15.902344 31.109375 " clip-rule="nonzero"/></clipPath><clipPath id="58ec534a5e"><path d="M 91 95 L 119 95 L 119 124 L 91 124 Z M 91 95 " clip-rule="nonzero"/></clipPath><clipPath id="11f7caa35a"><path d="M 15.902344 31.109375 L 131.578125 61.804688 L 106.257812 157.238281 L -9.421875 126.546875 Z M 15.902344 31.109375 " clip-rule="nonzero"/></clipPath><clipPath id="47da81744f"><path d="M 15.902344 31.109375 L 131.578125 61.804688 L 106.257812 157.238281 L -9.421875 126.546875 Z M 15.902344 31.109375 " clip-rule="nonzero"/></clipPath><clipPath id="2d5776d598"><path d="M 15.902344 31.109375 L 131.578125 61.804688 L 106.257812 157.238281 L -9.421875 126.546875 Z M 15.902344 31.109375 " clip-rule="nonzero"/></clipPath><clipPath id="2fe22e74d4"><path d="M 2 70 L 26 70 L 26 103 L 2 103 Z M 2 70 " clip-rule="nonzero"/></clipPath><clipPath id="27f7a6f053"><path d="M 15.902344 31.109375 L 131.578125 61.804688 L 106.257812 157.238281 L -9.421875 126.546875 Z M 15.902344 31.109375 " clip-rule="nonzero"/></clipPath><clipPath id="0d3e961801"><path d="M 15.902344 31.109375 L 131.578125 61.804688 L 106.257812 157.238281 L -9.421875 126.546875 Z M 15.902344 31.109375 " clip-rule="nonzero"/></clipPath><clipPath id="a409cfca9e"><path d="M 15.902344 31.109375 L 131.578125 61.804688 L 106.257812 157.238281 L -9.421875 126.546875 Z M 15.902344 31.109375 " clip-rule="nonzero"/></clipPath><clipPath id="f22210b0c0"><path d="M 31 44 L 63 44 L 63 86 L 31 86 Z M 31 44 " clip-rule="nonzero"/></clipPath><clipPath id="894d7fa0a8"><path d="M 15.902344 31.109375 L 131.578125 61.804688 L 106.257812 157.238281 L -9.421875 126.546875 Z M 15.902344 31.109375 " clip-rule="nonzero"/></clipPath><clipPath id="a646686167"><path d="M 15.902344 31.109375 L 131.578125 61.804688 L 106.257812 157.238281 L -9.421875 126.546875 Z M 15.902344 31.109375 " clip-rule="nonzero"/></clipPath><clipPath id="a9c308174a"><path d="M 15.902344 31.109375 L 131.578125 61.804688 L 106.257812 157.238281 L -9.421875 126.546875 Z M 15.902344 31.109375 " clip-rule="nonzero"/></clipPath><clipPath id="ceb1d22556"><path d="M 71 54 L 103 54 L 103 95 L 71 95 Z M 71 54 " clip-rule="nonzero"/></clipPath><clipPath id="30df723290"><path d="M 15.902344 31.109375 L 131.578125 61.804688 L 106.257812 157.238281 L -9.421875 126.546875 Z M 15.902344 31.109375 " clip-rule="nonzero"/></clipPath><clipPath id="dc7753d223"><path d="M 15.902344 31.109375 L 131.578125 61.804688 L 106.257812 157.238281 L -9.421875 126.546875 Z M 15.902344 31.109375 " clip-rule="nonzero"/></clipPath><clipPath id="71cfcba8d2"><path d="M 15.902344 31.109375 L 131.578125 61.804688 L 106.257812 157.238281 L -9.421875 126.546875 Z M 15.902344 31.109375 " clip-rule="nonzero"/></clipPath></defs><g clip-path="url(#5faf0a02cc)"><g clip-path="url(#146ca13dc1)"><g clip-path="url(#4d37a6185e)"><g clip-path="url(#8283e36d5b)"><path fill="#5a3938" d="M 67.5 93.542969 C 63.925781 91.664062 59.90625 90.597656 55.867188 90.457031 C 35.613281 89.894531 23.957031 100.003906 19.460938 114.652344 C 14.808594 130.730469 24.71875 135.605469 47.4375 129.660156 C 50.269531 128.953125 53.316406 129.777344 55.417969 131.808594 C 71.441406 147.1875 81.867188 149.210938 86.585938 134.632812 C 90.96875 118.96875 86.152344 103.519531 67.5 93.542969 Z M 67.5 93.542969 " fill-opacity="1" fill-rule="nonzero"/></g></g></g></g><g clip-path="url(#58ec534a5e)"><g clip-path="url(#11f7caa35a)"><g clip-path="url(#47da81744f)"><g clip-path="url(#2d5776d598)"><path fill="#5a3938" d="M 112.253906 95.960938 C 101.707031 92.261719 94.191406 104.640625 91.242188 115.429688 C 91.121094 115.882812 91.054688 116.347656 91.0625 116.808594 C 91.117188 129.007812 113.945312 122.222656 117.378906 112.878906 C 119.570312 106.917969 118.855469 98.585938 112.253906 95.960938 Z M 112.253906 95.960938 " fill-opacity="1" fill-rule="nonzero"/></g></g></g></g><g clip-path="url(#2fe22e74d4)"><g clip-path="url(#27f7a6f053)"><g clip-path="url(#0d3e961801)"><g clip-path="url(#a409cfca9e)"><path fill="#5a3938" d="M 24.359375 97.679688 C 27.164062 86.855469 26.757812 72.375 15.765625 70.359375 C 8.726562 69.375 3.960938 76.253906 2.914062 82.503906 C 1.261719 92.324219 17.734375 109.539062 23.820312 98.964844 C 24.066406 98.574219 24.238281 98.136719 24.359375 97.679688 Z M 24.359375 97.679688 " fill-opacity="1" fill-rule="nonzero"/></g></g></g></g><g clip-path="url(#f22210b0c0)"><g clip-path="url(#894d7fa0a8)"><g clip-path="url(#a646686167)"><g clip-path="url(#a9c308174a)"><path fill="#5a3938" d="M 33.484375 76.1875 C 38.097656 83.585938 43.980469 86.34375 51.675781 84.800781 C 59.851562 83.472656 69.050781 52.96875 55.523438 45.566406 C 44.257812 38.636719 25.351562 63.332031 33.484375 76.1875 Z M 33.484375 76.1875 " fill-opacity="1" fill-rule="nonzero"/></g></g></g></g><g clip-path="url(#ceb1d22556)"><g clip-path="url(#30df723290)"><g clip-path="url(#dc7753d223)"><g clip-path="url(#71cfcba8d2)"><path fill="#5a3938" d="M 90 54.714844 C 74.601562 54.429688 67.46875 85.476562 73.894531 90.695312 C 79.808594 95.851562 86.289062 96.371094 93.960938 92.234375 C 107.410156 85.105469 103.234375 54.285156 90 54.714844 Z M 94.832031 80.179688 C 92.796875 83.183594 83.222656 83.902344 83.222656 83.902344 C 83.222656 83.902344 80.382812 74.691406 82.417969 71.6875 C 83.609375 69.917969 85.867188 69.332031 87.707031 70.589844 C 90.0625 72.203125 89.195312 75.085938 89.195312 75.085938 C 89.195312 75.085938 91.550781 73.226562 93.90625 74.835938 C 95.742188 76.09375 96.019531 78.425781 94.832031 80.179688 Z M 94.832031 80.179688 " fill-opacity="1" fill-rule="nonzero"/></g></g></g></g><g fill="#5a3938" fill-opacity="1"><g transform="translate(136.16947, 86.543553)"><g><path d="M 0.875 0 L 9.753906 0 L 11.285156 -4.21875 L 24.273438 -4.21875 L 25.863281 0 L 34.683594 0 L 18.191406 -40.601562 L 17.367188 -40.601562 Z M 14.136719 -11.5625 L 17.808594 -21.753906 L 21.367188 -11.5625 Z M 14.136719 -11.5625 "/></g></g></g><g fill="#5a3938" fill-opacity="1"><g transform="translate(171.946795, 86.543553)"><g><path d="M 16.054688 -39.175781 L 4.382812 -39.175781 L 4.382812 0 L 16.054688 0 C 42.136719 0 42.136719 -39.175781 16.054688 -39.175781 Z M 16.054688 -31.339844 C 31.285156 -31.339844 31.285156 -7.835938 16.054688 -7.835938 L 12.21875 -7.835938 L 12.21875 -31.339844 Z M 16.054688 -31.339844 "/></g></g></g><g fill="#5a3938" fill-opacity="1"><g transform="translate(210.518377, 86.543553)"><g><path d="M 23.230469 0.546875 C 50.1875 0.546875 50.1875 -39.832031 23.230469 -39.832031 C -3.726562 -39.832031 -3.726562 0.546875 23.230469 0.546875 Z M 23.230469 -7.5625 C 7.5625 -7.5625 7.5625 -31.777344 23.230469 -31.777344 C 38.902344 -31.777344 38.902344 -7.5625 23.230469 -7.5625 Z M 23.230469 -7.5625 "/></g></g></g><g fill="#5a3938" fill-opacity="1"><g transform="translate(256.924809, 86.543553)"><g><path d="M 18.683594 0 L 18.683594 -31.339844 L 28.4375 -31.339844 L 28.4375 -39.121094 L 1.097656 -39.121094 L 1.097656 -31.339844 L 10.847656 -31.339844 L 10.847656 0 Z M 18.683594 0 "/></g></g></g><g fill="#5a3938" fill-opacity="1"><g transform="translate(286.894491, 86.543553)"><g><path d="M 24.65625 0 L 24.65625 -7.835938 L 12.21875 -7.835938 L 12.21875 -15.671875 L 22.519531 -15.671875 L 22.519531 -23.503906 L 12.21875 -23.503906 L 12.21875 -31.339844 L 24 -31.339844 L 24 -39.175781 L 4.382812 -39.175781 L 4.382812 0 Z M 24.65625 0 "/></g></g></g><g fill="#5a3938" fill-opacity="1"><g transform="translate(121.49314, 145.434589)"><g><path d="M 15.710938 0 L 15.710938 -19.234375 L 25.433594 -19.234375 C 44.949219 -19.234375 45.019531 -50.304688 25.433594 -50.304688 L 5.636719 -50.304688 L 5.636719 0 Z M 15.710938 -29.027344 L 15.710938 -40.300781 L 24.589844 -40.300781 C 31.351562 -40.300781 31.351562 -29.027344 24.589844 -29.027344 Z M 15.710938 -29.027344 "/></g></g></g><g fill="#5a3938" fill-opacity="1"><g transform="translate(163.97629, 145.434589)"><g><path d="M 1.128906 0 L 12.539062 0 L 14.511719 -5.425781 L 31.210938 -5.425781 L 33.253906 0 L 44.597656 0 L 23.390625 -52.207031 L 22.332031 -52.207031 Z M 18.175781 -14.867188 L 22.898438 -27.96875 L 27.476562 -14.867188 Z M 18.175781 -14.867188 "/></g></g></g><g fill="#5a3938" fill-opacity="1"><g transform="translate(209.982096, 145.434589)"><g><path d="M 24.023438 0 L 24.023438 -40.300781 L 36.566406 -40.300781 L 36.566406 -50.304688 L 1.410156 -50.304688 L 1.410156 -40.300781 L 13.949219 -40.300781 L 13.949219 0 Z M 24.023438 0 "/></g></g></g><g fill="#5a3938" fill-opacity="1"><g transform="translate(248.519882, 145.434589)"><g><path d="M 15.710938 0 L 15.710938 -50.375 L 5.636719 -50.375 L 5.636719 0 Z M 15.710938 0 "/></g></g></g><g fill="#5a3938" fill-opacity="1"><g transform="translate(269.937583, 145.434589)"><g><path d="M 15.710938 -27.40625 L 41.214844 1.058594 L 43.890625 1.058594 L 43.890625 -50.304688 L 33.746094 -50.304688 L 33.746094 -21.839844 L 8.3125 -51.429688 L 5.636719 -51.429688 L 5.636719 0 L 15.710938 0 Z M 15.710938 -27.40625 "/></g></g></g><g fill="#5a3938" fill-opacity="1"><g transform="translate(319.53648, 145.434589)"><g><path d="M 40.863281 0 L 40.863281 -50.375 L 30.789062 -50.375 L 30.789062 -30.222656 L 15.710938 -30.222656 L 15.710938 -50.375 L 5.636719 -50.375 L 5.636719 0 L 15.710938 0 L 15.710938 -20.148438 L 30.789062 -20.148438 L 30.789062 0 Z M 40.863281 0 "/></g></g></g><g fill="#5a3938" fill-opacity="1"><g transform="translate(366.10589, 145.434589)"><g><path d="M 1.128906 0 L 12.539062 0 L 14.511719 -5.425781 L 31.210938 -5.425781 L 33.253906 0 L 44.597656 0 L 23.390625 -52.207031 L 22.332031 -52.207031 Z M 18.175781 -14.867188 L 22.898438 -27.96875 L 27.476562 -14.867188 Z M 18.175781 -14.867188 "/></g></g></g><g fill="#5a3938" fill-opacity="1"><g transform="translate(412.111695, 145.434589)"><g><path d="M 3.3125 -3.242188 C 10.144531 0.28125 16.414062 0.632812 19.234375 0.421875 C 28.675781 -0.0703125 34.453125 -6.480469 34.453125 -14.867188 C 34.453125 -22.898438 27.6875 -27.40625 19.867188 -30.292969 C 16.980469 -31.28125 14.511719 -32.550781 14.230469 -35.367188 C 14.019531 -38.183594 15.640625 -40.792969 19.234375 -41.003906 C 20.785156 -41.074219 23.953125 -41.144531 29.519531 -38.890625 L 30.789062 -48.613281 C 24.304688 -50.867188 20.855469 -50.867188 18.246094 -50.726562 C 9.863281 -50.304688 4.015625 -43.820312 4.015625 -35.367188 C 4.015625 -26.914062 11.0625 -22.898438 18.953125 -20.007812 C 21.769531 -19.023438 23.953125 -17.753906 24.164062 -14.867188 C 24.445312 -12.117188 21.910156 -10.003906 18.953125 -9.792969 C 16.625 -9.582031 10.355469 -9.722656 4.578125 -13.808594 Z M 3.3125 -3.242188 "/></g></g></g></svg>